<svg xmlns="http://www.w3.org/2000/svg" viewBox="0 0 52 26"><title>horizontal-divider</title><path d="M5,15H55a1,1,0,0,1,1,1h0a1,1,0,0,1-1,1H5a1,1,0,0,1-1-1H4A1,1,0,0,1,5,15Z" transform="translate(-4 -3)" fill="#4e555a" fill-rule="evenodd"/><path d="M30,13h0a1,1,0,0,1,1,1v4a1,1,0,0,1-1,1h0a1,1,0,0,1-1-1V14A1,1,0,0,1,30,13Z" transform="translate(-4 -3)" fill="#60666a" fill-rule="evenodd"/><path d="M5,5H55a1,1,0,0,1,1,1h0a1,1,0,0,1-1,1H5A1,1,0,0,1,4,6H4A1,1,0,0,1,5,5Z" transform="translate(-4 -3)" fill="#4e555a" fill-rule="evenodd"/><path d="M44.76639,3h0a1,1,0,0,1,1,1V8a1,1,0,0,1-1,1h0a1,1,0,0,1-1-1V4A1,1,0,0,1,44.76639,3Z" transform="translate(-4 -3)" fill="#60666a" fill-rule="evenodd"/><path d="M5,25H55a1,1,0,0,1,1,1h0a1,1,0,0,1-1,1H5a1,1,0,0,1-1-1H4A1,1,0,0,1,5,25Z" transform="translate(-4 -3)" fill="#4e555a" fill-rule="evenodd"/><path d="M17.62436,23h0a1,1,0,0,1,1,1v4a1,1,0,0,1-1,1h0a1,1,0,0,1-1-1V24A1,1,0,0,1,17.62436,23Z" transform="translate(-4 -3)" fill="#60666a" fill-rule="evenodd"/></svg>