<?xml version="1.0" encoding="UTF-8"?>
<svg width="59px" height="33px" viewBox="0 0 59 33" version="1.1" xmlns="http://www.w3.org/2000/svg" xmlns:xlink="http://www.w3.org/1999/xlink">
    <!-- Generator: Sketch 49 (51002) - http://www.bohemiancoding.com/sketch -->
    <title>gallery</title>
    <desc>Created with Sketch.</desc>
    <defs></defs>
    <g id="Page-1" stroke="none" stroke-width="1" fill="none" fill-rule="evenodd">
        <g id="Icons" transform="translate(-289.000000, -173.000000)">
            <path d="M332,180 L332,198.5 C332,198.776142 331.776142,199 331.5,199 L305.5,199 C305.223858,199 305,198.776142 305,198.5 L305,180.5 C305,180.223858 305.223858,180 305.5,180 L332,180 Z M333,178 L304,178 C303.447715,178 303,178.447715 303,179 L303,200 C303,200.552285 303.447715,201 304,201 L333,201 C333.552285,201 334,200.552285 334,200 L334,179 C334,178.447715 333.552285,178 333,178 Z" id="Shape" fill="#4E555A" fill-rule="nonzero"></path>
            <path d="M344.5,201 L339,201 C338.447715,201 338,200.552285 338,200 L338,179 C338,178.447715 338.447715,178 339,178 L344.5,178 C344.776142,178 345,178.223858 345,178.5 L345,179.5 C345,179.776142 344.776142,180 344.5,180 L340.5,180 C340.223858,180 340,180.223858 340,180.5 L340,198.5 C340,198.776142 340.223858,199 340.5,199 L344.5,199 C344.776142,199 345,199.223858 345,199.5 L345,200.5 C345,200.776142 344.776142,201 344.5,201 Z" id="Combined-Shape" fill="#4E555A" fill-rule="nonzero"></path>
            <path d="M292,200.5 L292,199.5 C292,199.223858 292.223858,199 292.5,199 L296.5,199 C296.776142,199 297,198.776142 297,198.5 L297,180 L292.5,180 C292.223858,180 292,179.776142 292,179.5 L292,178.5 C292,178.223858 292.223858,178 292.5,178 L298,178 C298.552285,178 299,178.447715 299,179 L299,200 C299,200.552285 298.552285,201 298,201 L292.5,201 C292.223858,201 292,200.776142 292,200.5 Z" id="Combined-Shape" fill="#4E555A" fill-rule="nonzero"></path>
            <path d="M316,195.9376 C313.932,195.5931 312,193.8381 312,191.723 L312,189.486426 C312,189.210284 312.223858,188.986426 312.5,188.986426 C312.622017,188.986426 312.739823,189.031044 312.831226,189.111874 L315.662452,191.615598 C315.877092,191.805409 316,192.078173 316,192.364702 L316,195.9376 Z M318.666667,192.076604 C318.666667,192.200627 318.71276,192.320224 318.795996,192.412167 C318.981322,192.616883 319.297515,192.632601 319.50223,192.447275 L323.164436,189.131925 C323.25638,189.04869 323.375977,189.002596 323.5,189.002596 C323.776142,189.002596 324,189.226454 324,189.502596 L324,191.7217 C324,194.0851 321.741333,196 319.318667,196 L317.333333,196 L317.333333,189.5455 C313.648,188.8708 313.568,184.9487 314.650667,183 L316.126395,184.537678 C316.144975,184.557038 316.165083,184.574871 316.186525,184.591004 C316.407183,184.75703 316.720653,184.712741 316.886678,184.492082 L318.009333,183 L319.224981,184.511878 C319.23993,184.530471 319.256192,184.54797 319.27364,184.564241 C319.475597,184.75257 319.791987,184.741523 319.980316,184.539567 L321.416,183 C322.529333,185.0033 322.325333,188.876 318.666667,189.5455 L318.666667,192.076604 Z" id="Combined-Shape" fill="#60666A"></path>
        </g>
    </g>
</svg>