<?xml version="1.0" encoding="UTF-8"?>
<svg width="59px" height="33px" viewBox="0 0 59 33" version="1.1" xmlns="http://www.w3.org/2000/svg" xmlns:xlink="http://www.w3.org/1999/xlink">
    <!-- Generator: Sketch 49 (51002) - http://www.bohemiancoding.com/sketch -->
    <title>gallery-blue</title>
    <desc>Created with Sketch.</desc>
    <defs></defs>
    <g id="Page-1" stroke="none" stroke-width="1" fill="none" fill-rule="evenodd">
        <g id="Icons" transform="translate(-419.000000, -173.000000)">
            <path d="M462,180 L435.5,180 C435.223858,180 435,180.223858 435,180.5 L435,198.5 C435,198.776142 435.223858,199 435.5,199 L461.5,199 C461.776142,199 462,198.776142 462,198.5 L462,180 Z M463,178 C463.552285,178 464,178.447715 464,179 L464,200 C464,200.552285 463.552285,201 463,201 L434,201 C433.447715,201 433,200.552285 433,200 L433,179 C433,178.447715 433.447715,178 434,178 L463,178 Z" id="Shape-Copy-2" fill="#386689" fill-rule="nonzero"></path>
            <path d="M474.5,201 L469,201 C468.447715,201 468,200.552285 468,200 L468,179 C468,178.447715 468.447715,178 469,178 L474.5,178 C474.776142,178 475,178.223858 475,178.5 L475,179.5 C475,179.776142 474.776142,180 474.5,180 L470.5,180 C470.223858,180 470,180.223858 470,180.5 L470,198.5 C470,198.776142 470.223858,199 470.5,199 L474.5,199 C474.776142,199 475,199.223858 475,199.5 L475,200.5 C475,200.776142 474.776142,201 474.5,201 Z" id="Combined-Shape-Copy-2" fill="#386689" fill-rule="nonzero"></path>
            <path d="M422,200.5 L422,199.5 C422,199.223858 422.223858,199 422.5,199 L426.5,199 C426.776142,199 427,198.776142 427,198.5 L427,180 L422.5,180 C422.223858,180 422,179.776142 422,179.5 L422,178.5 C422,178.223858 422.223858,178 422.5,178 L428,178 C428.552285,178 429,178.447715 429,179 L429,200 C429,200.552285 428.552285,201 428,201 L422.5,201 C422.223858,201 422,200.776142 422,200.5 Z" id="Combined-Shape-Copy-3" fill="#386689" fill-rule="nonzero"></path>
            <path d="M446,195.9376 C443.932,195.5931 442,193.8381 442,191.723 L442,189.486426 C442,189.210284 442.223858,188.986426 442.5,188.986426 C442.622017,188.986426 442.739823,189.031044 442.831226,189.111874 L445.662452,191.615598 C445.877092,191.805409 446,192.078173 446,192.364702 L446,195.9376 Z M448.666667,192.076604 C448.666667,192.200627 448.71276,192.320224 448.795996,192.412167 C448.981322,192.616883 449.297515,192.632601 449.50223,192.447275 L453.164436,189.131925 C453.25638,189.04869 453.375977,189.002596 453.5,189.002596 C453.776142,189.002596 454,189.226454 454,189.502596 L454,191.7217 C454,194.0851 451.741333,196 449.318667,196 L447.333333,196 L447.333333,189.5455 C443.648,188.8708 443.568,184.9487 444.650667,183 L446.126395,184.537678 C446.144975,184.557038 446.165083,184.574871 446.186525,184.591004 C446.407183,184.75703 446.720653,184.712741 446.886678,184.492082 L448.009333,183 L449.224981,184.511878 C449.23993,184.530471 449.256192,184.54797 449.27364,184.564241 C449.475597,184.75257 449.791987,184.741523 449.980316,184.539567 L451.416,183 C452.529333,185.0033 452.325333,188.876 448.666667,189.5455 L448.666667,192.076604 Z" id="Combined-Shape-Copy-4" fill="#577E9C"></path>
        </g>
    </g>
</svg>